<?xml version="1.0" encoding="UTF-8"?>
<!DOCTYPE svg PUBLIC "-//W3C//DTD SVG 1.1//EN" "http://www.w3.org/Graphics/SVG/1.1/DTD/svg11.dtd">
<svg xmlns="http://www.w3.org/2000/svg" version="1.1" width="172px" height="78px" style="shape-rendering:geometricPrecision; text-rendering:geometricPrecision; image-rendering:optimizeQuality; fill-rule:evenodd; clip-rule:evenodd" xmlns:xlink="http://www.w3.org/1999/xlink">
<g><path style="opacity:1" fill="#fbfbfb" d="M -0.5,-0.5 C 56.8333,-0.5 114.167,-0.5 171.5,-0.5C 171.5,25.5 171.5,51.5 171.5,77.5C 114.167,77.5 56.8333,77.5 -0.5,77.5C -0.5,51.5 -0.5,25.5 -0.5,-0.5 Z"/></g>
<g><path style="opacity:1" fill="#060606" d="M 148.5,46.5 C 140.833,46.5 133.167,46.5 125.5,46.5C 125.263,47.791 125.596,48.791 126.5,49.5C 128.898,55.0273 130.898,60.694 132.5,66.5C 124.833,66.5 117.167,66.5 109.5,66.5C 109.5,68.5 109.5,70.5 109.5,72.5C 84.7388,72.9513 60.0722,72.2846 35.5,70.5C 34.5798,67.492 33.2465,64.6587 31.5,62C 31.8333,61.8333 32.1667,61.6667 32.5,61.5C 33.941,62.8651 35.2744,64.3651 36.5,66C 58.8333,66.6667 81.1667,66.6667 103.5,66C 105.498,53.5878 107.165,41.0878 108.5,28.5C 109.499,38.8119 109.832,49.1452 109.5,59.5C 114.5,59.5 119.5,59.5 124.5,59.5C 122.16,49.1499 119.994,38.8166 118,28.5C 119.402,32.2069 120.902,35.8736 122.5,39.5C 127.167,40.8333 131.833,40.8333 136.5,39.5C 127.471,29.4743 118.471,19.4743 109.5,9.5C 98.3436,21.4915 87.3436,33.6582 76.5,46C 51.8356,46.5 27.1689,46.6666 2.5,46.5C 2.34332,45.1266 2.50999,43.7932 3,42.5C 15.1667,29 27.3333,15.5 39.5,2C 63.1667,1.33333 86.8333,1.33333 110.5,2C 123.333,16.1667 136.167,30.3333 149,44.5C 149.692,45.4368 149.525,46.1034 148.5,46.5 Z"/></g>
<g><path style="opacity:1" fill="#070707" d="M 89.5,59.5 C 68.8306,59.6666 48.164,59.5 27.5,59C 23.7481,58.7599 20.0814,58.2599 16.5,57.5C 15.5798,54.492 14.2465,51.6587 12.5,49C 14.3201,49.7461 15.9867,51.0794 17.5,53C 40.5,53.6667 63.5,53.6667 86.5,53C 91.9827,44.5356 96.816,35.7022 101,26.5C 99.1765,33.4471 97.1765,40.4471 95,47.5C 93.6206,51.8482 91.7873,55.8482 89.5,59.5 Z"/></g>
<g><path style="opacity:1" fill="#777777" d="M 148.5,46.5 C 140.943,46.8476 133.61,47.8476 126.5,49.5C 125.596,48.791 125.263,47.791 125.5,46.5C 133.167,46.5 140.833,46.5 148.5,46.5 Z"/></g>
<g><path style="opacity:1" fill="#868686" d="M 16.5,57.5 C 20.0814,58.2599 23.7481,58.7599 27.5,59C 48.164,59.5 68.8306,59.6666 89.5,59.5C 68.6707,60.6627 47.6707,60.8293 26.5,60C 22.6887,60.0835 19.3554,59.2501 16.5,57.5 Z"/></g>
<g><path style="opacity:1" fill="#8c8c8c" d="M 35.5,70.5 C 60.0722,72.2846 84.7388,72.9513 109.5,72.5C 90.6711,73.6623 71.6711,73.8289 52.5,73C 46.4121,73.1256 40.7455,72.2923 35.5,70.5 Z"/></g>
</svg>
